<?xml version="1.0" encoding="UTF-8"?>
<svg version="1.1" xmlns="http://www.w3.org/2000/svg" width="483" height="90">
<path d="M0 0 C159.39 0 318.78 0 483 0 C483 29.7 483 59.4 483 90 C323.61 90 164.22 90 0 90 C0 60.3 0 30.6 0 0 Z " fill="#FCFEFD" transform="translate(0,0)"/>
<path d="M0 0 C1.670625 0.061875 1.670625 0.061875 3.375 0.125 C3.77847656 0.93195312 4.18195313 1.73890625 4.59765625 2.5703125 C4.88189453 3.13854736 5.16613281 3.70678223 5.45898438 4.29223633 C6.12642794 5.62762305 6.79306044 6.96341538 7.45898438 8.29956055 C9.69858966 12.7888551 11.95323066 17.27016678 14.22325134 21.74414062 C15.59823765 24.45632998 16.96828666 27.17099935 18.33786011 29.88592529 C19.02950579 31.25407514 19.72329547 32.62114323 20.41921997 33.98712158 C21.41002705 35.93267532 22.3932484 37.88189589 23.375 39.83203125 C23.9525 40.9713208 24.53 42.11061035 25.125 43.28442383 C26.375 46.125 26.375 46.125 26.375 49.125 C27.035 49.125 27.695 49.125 28.375 49.125 C28.62717285 48.29395752 28.8793457 47.46291504 29.13916016 46.60668945 C30.52781328 42.69448435 32.26595354 39.11033287 34.1484375 35.41796875 C34.51345367 34.69313797 34.87846985 33.96830719 35.25454712 33.22151184 C36.41587839 30.91655602 37.58253594 28.6143548 38.75 26.3125 C40.28136404 23.28652209 41.81014663 20.25926069 43.3359375 17.23046875 C43.69782166 16.51228973 44.05970581 15.79411072 44.43255615 15.0541687 C46.89760898 10.13816584 49.21717593 5.18492436 51.375 0.125 C57.4296875 -0.0703125 57.4296875 -0.0703125 59.375 0.125 C62.01132534 2.76132534 61.86556026 4.400511 62.3046875 8.08203125 C62.4584082 9.32645996 62.61212891 10.57088867 62.77050781 11.85302734 C62.93045857 13.21450413 63.09028635 14.57599538 63.25 15.9375 C63.59291496 18.75953916 63.94126504 21.58090277 64.2890625 24.40234375 C64.3770813 25.12359436 64.4651001 25.84484497 64.55578613 26.58795166 C65.15993837 31.50534573 65.82043907 36.41221587 66.5234375 41.31640625 C66.70793457 42.60893311 66.89243164 43.90145996 67.08251953 45.2331543 C67.43591932 47.68707211 67.79346 50.14039826 68.15576172 52.59301758 C69.0477083 58.84607513 69.56275161 64.80849948 69.375 71.125 C63.765 71.125 58.155 71.125 52.375 71.125 C51.055 56.605 49.735 42.085 48.375 27.125 C45.68226861 30.71530852 43.68773311 34.24121539 41.72265625 38.234375 C41.38125107 38.92001526 41.03984589 39.60565552 40.68809509 40.31207275 C39.6007749 42.49785719 38.51904312 44.68635221 37.4375 46.875 C36.71456457 48.33091388 35.99126081 49.78664492 35.26757812 51.2421875 C33.92617481 53.9412545 32.58702166 56.64141269 31.25024414 59.34277344 C29.30288025 63.27572929 27.33962699 67.20064196 25.375 71.125 C23.725 71.125 22.075 71.125 20.375 71.125 C20.1288797 70.62023132 19.8827594 70.11546265 19.62918091 69.59539795 C17.06634006 64.33936098 14.50322127 59.08345961 11.93994141 53.82763672 C10.98348992 51.86640846 10.02710918 49.90514569 9.07080078 47.94384766 C7.69582442 45.12393249 6.32059326 42.30414172 4.9453125 39.484375 C4.51815948 38.60819519 4.09100647 37.73201538 3.65090942 36.82928467 C3.25064545 36.00873596 2.85038147 35.18818726 2.43798828 34.34277344 C2.08713165 33.62329529 1.73627502 32.90381714 1.37478638 32.16253662 C0.38485651 30.14508728 -0.62000617 28.13498766 -1.625 26.125 C-2.945 40.975 -4.265 55.825 -5.625 71.125 C-8.925 71.125 -12.225 71.125 -15.625 71.125 C-15.02313594 54.57373848 -11.82556013 38.22167267 -9.09155273 21.91943359 C-8.6679677 19.38235651 -8.25464514 16.84384302 -7.84375 14.3046875 C-7.60458895 12.86972122 -7.36501642 11.43482345 -7.125 10 C-7.00769531 9.26007812 -6.89039063 8.52015625 -6.76953125 7.7578125 C-5.4850668 0.18914023 -5.4850668 0.18914023 0 0 Z " fill="#05A953" transform="translate(353.625,7.875)"/>
<path d="M0 0 C2.22134055 -0.0096214 4.44172204 -0.04058837 6.6628418 -0.07226562 C15.29738708 -0.13698156 22.03307237 0.23772498 29.50463867 5.05273438 C33.26101618 8.80911188 34.85742771 12.34341534 35.12963867 17.61523438 C34.90213944 23.74737288 32.62171458 28.31065847 28.31713867 32.61523438 C25.50930897 34.35341466 22.86574381 35.35457713 19.69213867 36.24023438 C21.04416619 39.90399117 22.70062914 43.04669429 24.80932617 46.33007812 C25.41647461 47.27947266 26.02362305 48.22886719 26.64916992 49.20703125 C27.28209961 50.18736328 27.9150293 51.16769531 28.56713867 52.17773438 C29.19233398 53.15419922 29.8175293 54.13066406 30.46166992 55.13671875 C32.97681723 59.05832792 35.49427923 62.96996594 38.13745117 66.80664062 C39.69213867 69.24023438 39.69213867 69.24023438 39.69213867 71.24023438 C37.12849384 71.34868468 34.56947588 71.42773181 32.00463867 71.49023438 C31.2834082 71.52375 30.56217773 71.55726562 29.8190918 71.59179688 C29.11333008 71.6046875 28.40756836 71.61757812 27.68041992 71.63085938 C26.71422729 71.66228027 26.71422729 71.66228027 25.72851562 71.69433594 C21.38966905 70.72679552 19.0699964 67.82791818 16.74755859 64.21582031 C16.14532471 63.0637207 15.54309082 61.91162109 14.92260742 60.72460938 C14.32601318 59.59764648 13.72941895 58.47068359 13.11474609 57.30957031 C12.37716064 55.88418945 11.6395752 54.45880859 10.87963867 52.99023438 C8.50776367 48.45273437 6.13588867 43.91523437 3.69213867 39.24023438 C3.36213867 49.80023438 3.03213867 60.36023438 2.69213867 71.24023438 C-2.91786133 71.24023438 -8.52786133 71.24023438 -14.30786133 71.24023438 C-14.33041412 62.13063949 -14.34877744 53.02106301 -14.3596735 43.91144657 C-14.36490189 39.68192066 -14.37199873 35.45241477 -14.38330078 31.22290039 C-14.39413124 27.14454895 -14.4001385 23.06621681 -14.40273857 18.9878521 C-14.40459253 17.42845798 -14.4082126 15.86906497 -14.41359138 14.30967903 C-14.42080394 12.13294276 -14.42185218 9.95628723 -14.42138672 7.77954102 C-14.42360733 6.53821915 -14.42582794 5.29689728 -14.42811584 4.01795959 C-14.14654083 -2.48606234 -5.10247618 0.01337331 0 0 Z " fill="#03A952" transform="translate(291.307861328125,7.759765625)"/>
<path d="M0 0 C2.05078125 0.03255208 4.1015625 0.06510417 6.15234375 0.09765625 C13.3938835 17.39881984 20.6269674 34.70431216 27.7303772 52.06274414 C28.30226146 53.4583505 28.87596558 54.85321254 29.45150757 56.24731445 C30.25141778 58.18627188 31.0445826 60.12785066 31.8359375 62.0703125 C32.28509521 63.16609619 32.73425293 64.26187988 33.19702148 65.39086914 C34.15234375 68.09765625 34.15234375 68.09765625 34.15234375 71.09765625 C21.45163174 72.0257191 21.45163174 72.0257191 17.08984375 68.91015625 C13.96772847 63.79335622 12.1525358 57.69819398 10.15234375 52.09765625 C1.90234375 51.76765625 -6.34765625 51.43765625 -14.84765625 51.09765625 C-15.83765625 54.06765625 -16.82765625 57.03765625 -17.84765625 60.09765625 C-18.56733019 62.12188964 -19.29482322 64.14338695 -20.03515625 66.16015625 C-20.37933594 67.09988281 -20.72351563 68.03960937 -21.078125 69.0078125 C-21.33207031 69.69746094 -21.58601562 70.38710937 -21.84765625 71.09765625 C-25.14765625 71.09765625 -28.44765625 71.09765625 -31.84765625 71.09765625 C-27.22349281 58.03642268 -21.74161268 45.36983206 -16.24171448 32.65837097 C-14.35777289 28.29761632 -12.50144367 23.92579776 -10.66015625 19.546875 C-10.15572998 18.34788574 -9.65130371 17.14889648 -9.1315918 15.91357422 C-8.16516173 13.61255024 -7.20042677 11.31081343 -6.23754883 9.00830078 C-5.80595459 7.9820459 -5.37436035 6.95579102 -4.9296875 5.8984375 C-4.36084839 4.53972534 -4.36084839 4.53972534 -3.78051758 3.15356445 C-2.40733202 0.12723742 -2.40733202 0.12723742 0 0 Z " fill="#06AA54" transform="translate(160.84765625,7.90234375)"/>
<path d="M0 0 C1.63984529 0.00031732 3.27971127 0.01165397 4.91943359 0.03173828 C6.21365738 0.03598312 6.21365738 0.03598312 7.5340271 0.04031372 C10.29544829 0.05152746 13.05654759 0.07663394 15.81787109 0.10205078 C17.68765808 0.11207905 19.55745015 0.12120517 21.42724609 0.12939453 C26.01591218 0.15147066 30.60433702 0.18600844 35.19287109 0.22705078 C35.29052734 6.37939453 35.29052734 6.37939453 35.19287109 8.22705078 C34.19287109 9.22705078 34.19287109 9.22705078 31.96801758 9.34057617 C31.00968018 9.33533936 30.05134277 9.33010254 29.06396484 9.32470703 C27.51225586 9.31987305 27.51225586 9.31987305 25.92919922 9.31494141 C24.84058594 9.3065625 23.75197266 9.29818359 22.63037109 9.28955078 C20.99165039 9.2827832 20.99165039 9.2827832 19.31982422 9.27587891 C16.61081678 9.26404918 13.9018373 9.24611309 11.19287109 9.22705078 C11.19287109 16.15705078 11.19287109 23.08705078 11.19287109 30.22705078 C19.11287109 30.22705078 27.03287109 30.22705078 35.19287109 30.22705078 C35.19287109 32.53705078 35.19287109 34.84705078 35.19287109 37.22705078 C33.19287109 39.22705078 33.19287109 39.22705078 30.94628906 39.45410156 C30.03508301 39.44362793 29.12387695 39.4331543 28.18505859 39.42236328 C27.2967334 39.41736816 26.4084082 39.41237305 25.49316406 39.40722656 C24.36281738 39.38901855 23.2324707 39.37081055 22.06787109 39.35205078 C18.47912109 39.31080078 14.89037109 39.26955078 11.19287109 39.22705078 C11.19287109 47.14705078 11.19287109 55.06705078 11.19287109 63.22705078 C19.11287109 63.22705078 27.03287109 63.22705078 35.19287109 63.22705078 C35.19287109 65.53705078 35.19287109 67.84705078 35.19287109 70.22705078 C34.19287109 71.22705078 34.19287109 71.22705078 30.4074707 71.34057617 C28.7200438 71.34041701 27.03261205 71.33471995 25.34521484 71.32470703 C24.01557457 71.32258461 24.01557457 71.32258461 22.65907288 71.32041931 C19.81613855 71.31480294 16.97328178 71.30224769 14.13037109 71.28955078 C12.20784619 71.28453789 10.28532005 71.27997462 8.36279297 71.27587891 C3.6394556 71.26482819 -1.08382349 71.24755261 -5.80712891 71.22705078 C-5.8534104 62.26512683 -5.88897671 53.30324383 -5.91075325 44.34122658 C-5.92120336 40.18007825 -5.93538482 36.01901152 -5.95800781 31.85791016 C-5.97969261 27.84438649 -5.99168828 23.83094145 -5.99688339 19.81736374 C-6.00058702 18.28390642 -6.00781902 16.75045354 -6.01858902 15.21702957 C-6.0330462 13.07395277 -6.03510931 10.93120343 -6.03417969 8.78808594 C-6.03862091 7.56674957 -6.04306213 6.34541321 -6.04763794 5.08706665 C-5.66341624 0.51809006 -4.49031734 0.26779499 0 0 Z " fill="#06AA54" transform="translate(436.80712890625,7.77294921875)"/>
<path d="M0 0 C1.63984529 0.00031732 3.27971127 0.01165397 4.91943359 0.03173828 C6.21365738 0.03598312 6.21365738 0.03598312 7.5340271 0.04031372 C10.29544829 0.05152746 13.05654759 0.07663394 15.81787109 0.10205078 C17.68765808 0.11207905 19.55745015 0.12120517 21.42724609 0.12939453 C26.01591218 0.15147066 30.60433702 0.18600844 35.19287109 0.22705078 C35.29052734 6.37939453 35.29052734 6.37939453 35.19287109 8.22705078 C34.19287109 9.22705078 34.19287109 9.22705078 31.96801758 9.34057617 C31.00968018 9.33533936 30.05134277 9.33010254 29.06396484 9.32470703 C27.51225586 9.31987305 27.51225586 9.31987305 25.92919922 9.31494141 C24.84058594 9.3065625 23.75197266 9.29818359 22.63037109 9.28955078 C20.99165039 9.2827832 20.99165039 9.2827832 19.31982422 9.27587891 C16.61081678 9.26404918 13.9018373 9.24611309 11.19287109 9.22705078 C11.19287109 16.15705078 11.19287109 23.08705078 11.19287109 30.22705078 C18.78287109 30.22705078 26.37287109 30.22705078 34.19287109 30.22705078 C34.19287109 32.86705078 34.19287109 35.50705078 34.19287109 38.22705078 C33.19287109 39.22705078 33.19287109 39.22705078 31.05981445 39.34057617 C29.68515015 39.33272095 29.68515015 39.33272095 28.28271484 39.32470703 C27.39189209 39.32220947 26.50106934 39.31971191 25.58325195 39.31713867 C24.44380127 39.30803467 23.30435059 39.29893066 22.13037109 39.28955078 C18.52099609 39.26892578 14.91162109 39.24830078 11.19287109 39.22705078 C11.19287109 49.78705078 11.19287109 60.34705078 11.19287109 71.22705078 C5.58287109 71.22705078 -0.02712891 71.22705078 -5.80712891 71.22705078 C-5.85226146 62.2651136 -5.88897669 53.30325155 -5.91075325 44.34122658 C-5.92120336 40.18007825 -5.93538482 36.01901152 -5.95800781 31.85791016 C-5.97969261 27.84438649 -5.99168828 23.83094145 -5.99688339 19.81736374 C-6.00058702 18.28390642 -6.00781902 16.75045354 -6.01858902 15.21702957 C-6.0330462 13.07395277 -6.03510931 10.93120343 -6.03417969 8.78808594 C-6.03862091 7.56674957 -6.04306213 6.34541321 -6.04763794 5.08706665 C-5.66341624 0.51809006 -4.49031734 0.26779499 0 0 Z " fill="#05A953" transform="translate(206.80712890625,7.77294921875)"/>
<path d="M0 0 C4.95 0 9.9 0 15 0 C15 23.43 15 46.86 15 71 C9.39 71 3.78 71 -2 71 C-2.04513256 62.03806282 -2.08184778 53.07620077 -2.10362434 44.1141758 C-2.11407446 39.95302747 -2.12825592 35.79196074 -2.15087891 31.63085938 C-2.17256371 27.61733571 -2.18455937 23.60389067 -2.18975449 19.59031296 C-2.19345811 18.05685564 -2.20069011 16.52340276 -2.21146011 14.98997879 C-2.22591729 12.84690199 -2.2279804 10.70415264 -2.22705078 8.56103516 C-2.231492 7.33969879 -2.23593323 6.11836243 -2.24050903 4.86001587 C-2 2 -2 2 0 0 Z " fill="#02A851" transform="translate(252,8)"/>
<path d="M0 0 C3.43779847 0.73359064 4.72010849 1.38669959 6.75 4.3125 C7.17796875 4.90675781 7.6059375 5.50101563 8.046875 6.11328125 C9 8 9 8 9 12 C5.22360282 11.48967606 3.55277419 10.79233071 1 8 C-0.91799909 10.70739194 -2.8341546 13.41608371 -4.75 16.125 C-5.28882813 16.88554687 -5.82765625 17.64609375 -6.3828125 18.4296875 C-7.44139094 19.92718871 -8.49615341 21.42739552 -9.546875 22.93041992 C-10.44022787 24.20275734 -11.34422356 25.4677961 -12.265625 26.7199707 C-14.50950336 29.85088223 -15.55015105 32.06960059 -15.5 35.9375 C-15.5103125 36.73027344 -15.520625 37.52304687 -15.53125 38.33984375 C-14.77968674 42.10318627 -13.0154188 44.74093984 -11 48 C-11.35715088 48.49290527 -11.71430176 48.98581055 -12.08227539 49.49365234 C-13.14419329 50.95984155 -14.20470259 52.42705152 -15.26416016 53.89501953 C-16.46817311 55.55540014 -17.68018145 57.21001077 -18.89990234 58.85888672 C-22.06588869 63.16622946 -24.70332048 67.35063467 -27.125 72.125 C-28.63671875 74.40625 -28.63671875 74.40625 -31 76 C-37.27939485 77.15812624 -43.68456772 76.56782108 -50 76 C-50.64086914 74.2265625 -50.64086914 74.2265625 -51 72 C-50.14233398 70.2109375 -50.14233398 70.2109375 -48.74609375 68.375 C-48.22845459 67.67882568 -47.71081543 66.98265137 -47.17749023 66.26538086 C-46.60329346 65.51780518 -46.02909668 64.77022949 -45.4375 64 C-44.22760586 62.37746478 -43.0193286 60.75372288 -41.8125 59.12890625 C-41.18214844 58.28602051 -40.55179688 57.44313477 -39.90234375 56.57470703 C-36.83214566 52.41937989 -33.88579442 48.17976579 -30.9375 43.9375 C-29.76202637 42.25238954 -28.58624721 40.56749216 -27.41015625 38.8828125 C-26.8392627 38.06458008 -26.26836914 37.24634766 -25.68017578 36.40332031 C-23.08994236 32.69825524 -20.48384984 29.00447115 -17.875 25.3125 C-17.39635498 24.63509766 -16.91770996 23.95769531 -16.42456055 23.25976562 C-15.45664626 21.89022647 -14.48862813 20.52076071 -13.52050781 19.15136719 C-10.76179821 15.24806773 -8.00612532 11.34262443 -5.25 7.4375 C-4.23438721 5.9986893 -3.2187634 4.55988637 -2.203125 3.12109375 C-1.47609375 2.09113281 -0.7490625 1.06117187 0 0 Z " fill="#06AA54" transform="translate(55,3)"/>
<path d="M0 0 C1.32 0.33 2.64 0.66 4 1 C3.3695141 4.40675128 2.07044252 6.64955757 0.09375 9.4765625 C-0.48503906 10.311875 -1.06382813 11.1471875 -1.66015625 12.0078125 C-2.57087891 13.30332031 -2.57087891 13.30332031 -3.5 14.625 C-4.69887899 16.34568407 -5.89684155 18.06700714 -7.09375 19.7890625 C-7.62677734 20.54912598 -8.15980469 21.30918945 -8.70898438 22.09228516 C-11.69814113 26.50931823 -11.50260427 30.78445078 -11 36 C-9.53888984 38.79897943 -9.53888984 38.79897943 -8 41 C-8.3556706 44.94707618 -10.68629563 47.5929204 -13 50.6875 C-14.0828125 52.14736328 -14.0828125 52.14736328 -15.1875 53.63671875 C-17 56 -17 56 -18 57 C-19.56172745 57.08685603 -21.12729344 57.10702219 -22.69140625 57.09765625 C-23.63564453 57.09443359 -24.57988281 57.09121094 -25.55273438 57.08789062 C-26.54595703 57.07951172 -27.53917969 57.07113281 -28.5625 57.0625 C-29.55958984 57.05798828 -30.55667969 57.05347656 -31.58398438 57.04882812 C-34.05604849 57.03700007 -36.52799518 57.02051849 -39 57 C-37.48545224 52.45635671 -34.92947553 48.95620559 -32.0625 45.1875 C-28.11589767 39.90581625 -24.27503023 34.57387285 -20.5625 29.125 C-16.58811853 23.29989189 -12.56801222 17.51018156 -8.5 11.75 C-7.9954126 11.03473145 -7.4908252 10.31946289 -6.97094727 9.58251953 C-4.68877 6.35565942 -2.39760725 3.1428095 0 0 Z " fill="#06AA54" transform="translate(68,22)"/>
<path d="M0 0 C0.99 0.33 1.98 0.66 3 1 C2.44746023 4.88868527 1.39440569 7.2577386 -0.94140625 10.3984375 C-1.52470703 11.20796875 -2.10800781 12.0175 -2.70898438 12.8515625 C-3.94231155 14.53065493 -5.18188844 16.20517509 -6.42773438 17.875 C-10.19265002 22.95664678 -10.19265002 22.95664678 -11.58984375 28.9765625 C-11.29787109 30.47316406 -11.29787109 30.47316406 -11 32 C-7.46435537 34.35709642 -5.77974745 34.30009735 -1.58203125 34.4140625 C-0.32841797 34.45273438 0.92519531 34.49140625 2.21679688 34.53125 C3.52712891 34.5621875 4.83746094 34.593125 6.1875 34.625 C7.5228116 34.66319338 8.85809892 34.70224591 10.19335938 34.7421875 C13.46209888 34.83659153 16.73083064 34.92217017 20 35 C18.89789095 33.24870343 17.79322568 31.49901536 16.6875 29.75 C16.07261719 28.77546875 15.45773438 27.8009375 14.82421875 26.796875 C13.10456277 24.04939745 13.10456277 24.04939745 11.26953125 21.890625 C10 20 10 20 10 16 C13.37082044 16.21898601 14.16749091 17.1873358 16.47265625 19.765625 C17.34645166 20.91919405 18.20942792 22.08102267 19.0625 23.25 C19.49626953 23.82363281 19.93003906 24.39726563 20.37695312 24.98828125 C27 33.8391719 27 33.8391719 27 39 C9.18 39 -8.64 39 -27 39 C-22.49986138 31.12475742 -22.49986138 31.12475742 -20.3359375 28.08984375 C-19.85809814 27.41630859 -19.38025879 26.74277344 -18.88793945 26.04882812 C-18.38866943 25.35208984 -17.88939941 24.65535156 -17.375 23.9375 C-16.85446045 23.20595703 -16.3339209 22.47441406 -15.79760742 21.72070312 C-14.72735091 20.21756129 -13.65565543 18.71544298 -12.58251953 17.21435547 C-11.06031175 15.08439178 -9.54305162 12.95099853 -8.02734375 10.81640625 C-7.12259314 9.5441305 -6.21765504 8.27198805 -5.3125 7 C-4.89081543 6.40695068 -4.46913086 5.81390137 -4.03466797 5.20288086 C-1.11687232 1.11687232 -1.11687232 1.11687232 0 0 Z " fill="#08AB55" transform="translate(82,40)"/>
<path d="M0 0 C10.37861272 1.15317919 10.37861272 1.15317919 15 6 C17.54676486 9.47286118 17.3628022 12.79149443 17 17 C15.26918726 21.64586577 13.29631838 24.47824791 9 27 C6.03 27.33 3.06 27.66 0 28 C0 18.76 0 9.52 0 0 Z " fill="#F9FCFA" transform="translate(294,14)"/>
<path d="M0 0 C2.43818603 2.1852194 3.64917422 4.07977575 4.82421875 7.125 C5.13037109 7.91390625 5.43652344 8.7028125 5.75195312 9.515625 C6.06068359 10.33546875 6.36941406 11.1553125 6.6875 12 C7.00783203 12.81984375 7.32816406 13.6396875 7.65820312 14.484375 C10 20.59601546 10 20.59601546 10 24 C3.73 24 -2.54 24 -9 24 C-6.7183577 15.63397824 -3.51779922 7.90081767 0 0 Z " fill="#ECF8F2" transform="translate(158,29)"/>
</svg>
